# xmcd
#
# Track frame offsets: 
#        150
#        15427
#        31084
#        49095
#        65174
#        80165
#        96143
#        111375
#        127463
#        142453
#        161159
#        176519
#        192699
#        213136
#        244583
#        258279
#        275558
#        290891
#        308799
#
# Disc length: 4244 seconds
#
# Revision: 0
# Processed by: cddbd v1.5.2PL0 Copyright (c) Steve Scherf et al.
# Submitted via: ExactAudioCopy v1.3
#
DISCID=2f109213
DTITLE=João Pedro e Cristiano - Acústico e ao vivo
DYEAR=1900
DGENRE=Country
TTITLE0=Ai amor (ao-vivo)
TTITLE1=Por toda minha vida (ao-vivo)
TTITLE2=Medida exata (ao-vivo)
TTITLE3=Saudade matadeira (ao-vivo)
TTITLE4=Rajada de emoção (ao-vivo)
TTITLE5=Nois aliza mais num casa (ao-vivo)
TTITLE6=A gente se enrosca (ao-vivo)
TTITLE7=Descarados (ao-vivo)
TTITLE8=Impossivel (ao-vivo)
TTITLE9=Vida cigana (ao-vivo)
TTITLE10=Volta de uma vez (ao-vivo)
TTITLE11=Era só pra ficar (ao-vivo)
TTITLE12=Bem aos olhos da lua (ao-vivo)
TTITLE13=Pout-pourri (Trio Parada Dura) (ao-vivo)
TTITLE14=Sozinho na noite (ao-vivo)
TTITLE15=Eu nunca mais amei assim (ao-vivo)
TTITLE16=Ira (ao-vivo)
TTITLE17=Nos caminhos (ao-vivo)
TTITLE18=Aparpa (ao-vivo)
EXTD=
EXTT0=
EXTT1=
EXTT2=
EXTT3=
EXTT4=
EXTT5=
EXTT6=
EXTT7=
EXTT8=
EXTT9=
EXTT10=
EXTT11=
EXTT12=
EXTT13=
EXTT14=
EXTT15=
EXTT16=
EXTT17=
EXTT18=
PLAYORDER=
